<?xml version="1.0" encoding="utf-8"?>
<!-- Generator: Adobe Illustrator 16.0.0, SVG Export Plug-In . SVG Version: 6.00 Build 0)  -->
<!DOCTYPE svg PUBLIC "-//W3C//DTD SVG 1.1//EN" "http://www.w3.org/Graphics/SVG/1.1/DTD/svg11.dtd">
<svg version="1.1" id="Layer_1" xmlns="http://www.w3.org/2000/svg" xmlns:xlink="http://www.w3.org/1999/xlink" x="0px" y="0px"
	 width="1400px" height="200px" viewBox="0 0 1400 200" enable-background="new 0 0 1400 200" xml:space="preserve">
<g>
	<path fill="#002FD4" d="M300.742,0c5.125,8.076,13.999,13.538,24.177,13.929V14h202.175c-0.002,0.001-0.01,0.008-0.01,0.008
		c19.619,0,22.894,11.144,23.335,16.509V32.5v0.825c0,0.003-0.002,0.017-0.002,0.017s0.002-0.005,0.002-0.005V35.5V36
		c0,16.568,13.432,30,30,30h240c16.568,0,30-13.432,30-30v-0.5v-3v-2.017C850.868,25.108,854.164,14,873.751,14h202.167v-0.041
		c10.665-0.002,20.022-5.573,25.341-13.959H300.742z"/>
</g>
</svg>
